<svg width="121" height="39" viewBox="0 0 121 39" fill="#fff" xmlns="http://www.w3.org/2000/svg">
<g clip-path="url(#clip0_37_1136)">
<path d="M11.1222 6.63283H14.4773V10.1503H11.1222C10.7503 10.1465 10.3814 10.2168 10.0371 10.3568C9.69282 10.4969 9.38003 10.704 9.11706 10.966C8.85409 11.228 8.64622 11.5397 8.50564 11.8827C8.36505 12.2258 8.29456 12.5933 8.29829 12.9638V14.7244H14.4773V18.2418H8.29829V31.6133H4.76798V18.2418H0V14.7244H4.76798V12.9638C4.76576 12.1318 4.92861 11.3076 5.24715 10.5385C5.5657 9.76935 6.03366 9.07055 6.62414 8.48222C7.21463 7.8939 7.91599 7.42764 8.68791 7.11026C9.45984 6.79288 10.2871 6.63063 11.1222 6.63283Z" />
<path d="M47.5608 22.6437L41.5234 13.6719H45.6894L49.6447 19.5479L53.6 13.6719H57.7659L51.7285 22.6437L57.7659 31.6156H53.6L49.6447 25.7396L45.6894 31.6156H41.5234L47.5608 22.6437Z" />
<path d="M59.9688 28.09H65.7955V17.1848H59.9688V13.6562H69.3258V28.0807H75.1525V31.6H59.9688V28.09Z" />
<path d="M80.8525 29.6452V39.0033H77.3203V13.6719H80.8525V15.6423L83.7826 13.6719H86.5021C88.1862 13.6773 89.7997 14.3462 90.9906 15.5327C92.1814 16.7192 92.8528 18.3268 92.8582 20.0047V25.2827C92.8587 26.1145 92.6946 26.9382 92.3754 27.7068C92.0561 28.4753 91.5879 29.1737 90.9976 29.7618C90.4073 30.35 89.7064 30.8164 88.9351 31.1345C88.1637 31.4526 87.3369 31.6161 86.5021 31.6156H83.7826L80.8525 29.6452ZM84.8786 28.0963H86.5021C87.2503 28.0939 87.9671 27.7966 88.4962 27.2695C89.0252 26.7424 89.3235 26.0282 89.326 25.2827V20.0047C89.3235 19.2593 89.0252 18.5451 88.4962 18.0179C87.9671 17.4908 87.2503 17.1936 86.5021 17.1912H84.8786L80.8525 19.8989V25.3867L84.8786 28.0963Z" />
<path d="M104.253 3.64844L93.7344 31.6133H97.5126L108.031 3.64844H104.253Z" />
<path d="M24.032 3.64844L13.5156 31.6133H17.2938L27.8102 3.64844H24.032Z" />
<path d="M71.482 8.47786L70.6935 7.397L68.1865 5.61786L68.2219 5.512L71.2769 5.61229L72.5519 5.2L71.4987 1.97229L70.2238 2.38457L67.8249 4.23057L67.7354 4.16557L68.6954 1.33529V0H65.2899V1.33529L66.2909 4.17114L66.1995 4.238L63.7559 2.38457L62.481 1.97229L61.4297 5.2L62.7046 5.61229L65.7596 5.52686L65.7951 5.63271L63.2862 7.397L62.4996 8.47786L65.2545 10.4724L66.043 9.39343L66.9339 6.47029H67.0458L67.92 9.46771L68.2685 9.945L68.7214 10.4761L71.482 8.47786Z" />
<path d="M37.1701 25.3998C37.1292 26.1177 36.8148 26.793 36.291 27.2876C35.7671 27.7822 35.0735 28.0589 34.3518 28.0611H31.5279C30.7791 28.0596 30.0613 27.7628 29.5315 27.2356C29.0016 26.7084 28.7028 25.9936 28.7003 25.2475V23.4535H40.706V19.6538C40.6203 18.0342 39.9125 16.5096 38.7291 15.3959C37.5458 14.2822 35.9777 13.6649 34.35 13.6719H31.5279C30.6931 13.6714 29.8664 13.8349 29.095 14.153C28.3236 14.4711 27.6227 14.9375 27.0324 15.5257C26.4421 16.1139 25.974 16.8122 25.6547 17.5807C25.3355 18.3493 25.1714 19.173 25.1719 20.0048V25.2475C25.1753 26.9293 25.8449 28.5418 27.0351 29.7343C28.2254 30.9268 29.84 31.6029 31.5279 31.6157H34.3518C36.0149 31.6088 37.6095 30.9552 38.7961 29.7942C39.9826 28.6331 40.6672 27.0564 40.7041 25.3998H37.1701ZM28.7003 20.0048C28.6986 19.6346 28.7705 19.2677 28.9119 18.9253C29.0533 18.583 29.2614 18.2719 29.5241 18.0101C29.7869 17.7484 30.099 17.541 30.4427 17.4002C30.7863 17.2593 31.1545 17.1876 31.5261 17.1894H34.35C34.7221 17.1854 35.0914 17.2555 35.436 17.3956C35.7807 17.5357 36.0938 17.7429 36.357 18.0051C36.6201 18.2674 36.8281 18.5793 36.9687 18.9227C37.1093 19.2661 37.1797 19.634 37.1757 20.0048V20.6381H28.7003V20.0048Z" />
<path d="M114.651 13.6719H111.825C110.99 13.6714 110.163 13.8349 109.392 14.153C108.62 14.4711 107.92 14.9375 107.329 15.5257C106.739 16.1138 106.271 16.8122 105.952 17.5807C105.632 18.3493 105.468 19.173 105.469 20.0048V25.2475C105.473 26.9291 106.142 28.5413 107.333 29.7337C108.523 30.9262 110.137 31.6024 111.825 31.6156H114.651C116.313 31.6088 117.908 30.9552 119.094 29.7941C120.28 28.633 120.965 27.0562 121.001 25.3998H117.46C117.419 26.1174 117.104 26.7924 116.581 27.287C116.058 27.7816 115.364 28.0584 114.643 28.0611H111.825C111.077 28.0586 110.36 27.7614 109.831 27.2343C109.302 26.7072 109.003 25.9929 109.001 25.2475V23.4535H121.005V19.6538C120.919 18.0345 120.211 16.5102 119.029 15.3965C117.846 14.2829 116.278 13.6654 114.651 13.6719ZM117.474 20.6381H109.001V20.0048C108.999 19.6347 109.071 19.2678 109.212 18.9255C109.353 18.5831 109.561 18.2721 109.824 18.0102C110.086 17.7484 110.398 17.5411 110.742 17.4002C111.085 17.2593 111.453 17.1876 111.825 17.1894H114.651C115.023 17.1856 115.392 17.2559 115.736 17.3961C116.08 17.5363 116.393 17.7436 116.656 18.0058C116.919 18.268 117.127 18.5799 117.268 18.9231C117.408 19.2664 117.478 19.6341 117.474 20.0048V20.6381Z" />
</g>
<defs>
<clipPath id="clip0_37_1136">
<rect width="121" height="39" />
</clipPath>
</defs>
</svg>
